<mxfile host="Electron" modified="2024-05-14T12:16:43.242Z" agent="Mozilla/5.0 (Windows NT 10.0; Win64; x64) AppleWebKit/537.36 (KHTML, like Gecko) draw.io/23.1.5 Chrome/120.0.6099.109 Electron/28.1.0 Safari/537.36" etag="QT5PQkEgVKNR7V82y7ZD" version="23.1.5" type="device">
  <diagram name="Page-1" id="UzbQZcKM9ojw3srFWH9t">
    <mxGraphModel dx="1050" dy="621" grid="1" gridSize="10" guides="1" tooltips="1" connect="1" arrows="1" fold="1" page="1" pageScale="1" pageWidth="1700" pageHeight="1150" math="0" shadow="0">
      <root>
        <mxCell id="0" />
        <mxCell id="1" parent="0" />
        <mxCell id="2yak_PH-J6CoQQhNvmvA-6" style="edgeStyle=none;rounded=0;orthogonalLoop=1;jettySize=auto;html=1;exitX=1;exitY=0;exitDx=0;exitDy=0;strokeColor=default;align=center;verticalAlign=middle;fontFamily=Helvetica;fontSize=11;fontColor=default;labelBackgroundColor=default;endArrow=none;endFill=0;" edge="1" parent="1" source="2yak_PH-J6CoQQhNvmvA-1" target="2yak_PH-J6CoQQhNvmvA-5">
          <mxGeometry relative="1" as="geometry" />
        </mxCell>
        <mxCell id="2yak_PH-J6CoQQhNvmvA-15" style="edgeStyle=none;rounded=0;orthogonalLoop=1;jettySize=auto;html=1;exitX=1;exitY=1;exitDx=0;exitDy=0;strokeColor=default;align=center;verticalAlign=middle;fontFamily=Helvetica;fontSize=11;fontColor=default;labelBackgroundColor=default;endArrow=none;endFill=0;" edge="1" parent="1" source="2yak_PH-J6CoQQhNvmvA-1" target="2yak_PH-J6CoQQhNvmvA-10">
          <mxGeometry relative="1" as="geometry" />
        </mxCell>
        <mxCell id="2yak_PH-J6CoQQhNvmvA-16" style="edgeStyle=none;rounded=0;orthogonalLoop=1;jettySize=auto;html=1;exitX=1;exitY=0.5;exitDx=0;exitDy=0;strokeColor=default;align=center;verticalAlign=middle;fontFamily=Helvetica;fontSize=11;fontColor=default;labelBackgroundColor=default;endArrow=none;endFill=0;" edge="1" parent="1" source="2yak_PH-J6CoQQhNvmvA-1" target="2yak_PH-J6CoQQhNvmvA-9">
          <mxGeometry relative="1" as="geometry" />
        </mxCell>
        <mxCell id="2yak_PH-J6CoQQhNvmvA-1" value="Wallet" style="whiteSpace=wrap;html=1;align=center;" vertex="1" parent="1">
          <mxGeometry x="490" y="300" width="100" height="40" as="geometry" />
        </mxCell>
        <mxCell id="2yak_PH-J6CoQQhNvmvA-3" style="rounded=0;orthogonalLoop=1;jettySize=auto;html=1;entryX=0.5;entryY=0;entryDx=0;entryDy=0;endArrow=none;endFill=0;" edge="1" parent="1" source="2yak_PH-J6CoQQhNvmvA-2" target="2yak_PH-J6CoQQhNvmvA-1">
          <mxGeometry relative="1" as="geometry" />
        </mxCell>
        <mxCell id="2yak_PH-J6CoQQhNvmvA-2" value="wallet_address" style="ellipse;whiteSpace=wrap;html=1;align=center;fontStyle=4" vertex="1" parent="1">
          <mxGeometry x="490" y="200" width="100" height="40" as="geometry" />
        </mxCell>
        <mxCell id="2yak_PH-J6CoQQhNvmvA-5" value="owner_id" style="ellipse;whiteSpace=wrap;html=1;align=center;fontFamily=Helvetica;fontSize=11;fontColor=default;labelBackgroundColor=default;" vertex="1" parent="1">
          <mxGeometry x="610" y="230" width="100" height="40" as="geometry" />
        </mxCell>
        <mxCell id="2yak_PH-J6CoQQhNvmvA-9" value="free_value" style="ellipse;whiteSpace=wrap;html=1;align=center;fontFamily=Helvetica;fontSize=11;fontColor=default;labelBackgroundColor=default;" vertex="1" parent="1">
          <mxGeometry x="680" y="300" width="100" height="40" as="geometry" />
        </mxCell>
        <mxCell id="2yak_PH-J6CoQQhNvmvA-14" style="edgeStyle=none;rounded=0;orthogonalLoop=1;jettySize=auto;html=1;strokeColor=default;align=center;verticalAlign=middle;fontFamily=Helvetica;fontSize=11;fontColor=default;labelBackgroundColor=default;endArrow=none;endFill=0;" edge="1" parent="1" source="2yak_PH-J6CoQQhNvmvA-10" target="2yak_PH-J6CoQQhNvmvA-11">
          <mxGeometry relative="1" as="geometry" />
        </mxCell>
        <mxCell id="2yak_PH-J6CoQQhNvmvA-10" value="locked_value" style="ellipse;whiteSpace=wrap;html=1;align=center;fontFamily=Helvetica;fontSize=11;fontColor=default;labelBackgroundColor=default;" vertex="1" parent="1">
          <mxGeometry x="610" y="370" width="100" height="40" as="geometry" />
        </mxCell>
        <mxCell id="2yak_PH-J6CoQQhNvmvA-11" value="total_value" style="ellipse;whiteSpace=wrap;html=1;align=center;dashed=1;fontFamily=Helvetica;fontSize=11;fontColor=default;labelBackgroundColor=default;" vertex="1" parent="1">
          <mxGeometry x="780" y="370" width="100" height="40" as="geometry" />
        </mxCell>
        <mxCell id="2yak_PH-J6CoQQhNvmvA-12" style="edgeStyle=none;rounded=0;orthogonalLoop=1;jettySize=auto;html=1;exitX=1;exitY=1;exitDx=0;exitDy=0;entryX=0.284;entryY=0.12;entryDx=0;entryDy=0;entryPerimeter=0;strokeColor=default;align=center;verticalAlign=middle;fontFamily=Helvetica;fontSize=11;fontColor=default;labelBackgroundColor=default;endArrow=none;endFill=0;" edge="1" parent="1" source="2yak_PH-J6CoQQhNvmvA-9" target="2yak_PH-J6CoQQhNvmvA-11">
          <mxGeometry relative="1" as="geometry" />
        </mxCell>
      </root>
    </mxGraphModel>
  </diagram>
</mxfile>
